<svg width="127" height="50" viewBox="0 0 127 50" fill="none" xmlns="http://www.w3.org/2000/svg">
<g clip-path="url(#clip0_734_368)">
<path d="M30.9 42.4C30.9 33.87 23.98 26.95 15.45 26.95C6.92 26.95 0 33.87 0 42.4V50H30.9V42.4Z" fill="#E7423F"/>
<path d="M43.4 34.19C43.4 26.47 37.14 20.22 29.43 20.22C21.72 20.22 15.46 26.48 15.46 34.19V41.06H43.4V34.19Z" fill="#67B95D"/>
<path d="M17.4 27.09C16.17 29.17 15.45 31.59 15.45 34.19V41.06H30.83C30.21 33.81 24.57 28 17.4 27.09Z" fill="#4DA7DE"/>
<path d="M55.8999 25.98C55.8999 19.08 50.2999 13.48 43.3999 13.48C36.4999 13.48 30.8999 19.08 30.8999 25.98V32.13H55.8999V25.98Z" fill="#EBA520"/>
<path d="M32.1799 20.49C31.3699 22.15 30.8999 24.01 30.8999 25.98V32.13H43.2299C42.3599 26.29 37.9099 21.64 32.1799 20.49Z" fill="#E7423F"/>
<path d="M68.4001 17.76C68.4001 11.67 63.4601 6.73999 57.3801 6.73999C51.3001 6.73999 46.3601 11.68 46.3601 17.76V23.18H68.4001V17.76Z" fill="#4DA7DE"/>
<path d="M47.0201 14.01C46.6001 15.18 46.3501 16.44 46.3501 17.76V23.18H55.5701C54.5801 18.8 51.2801 15.3 47.0201 14.01Z" fill="#DA5398"/>
<path d="M80.9001 9.55C80.9001 4.28 76.62 0 71.35 0C66.08 0 61.8 4.28 61.8 9.55V14.25H80.9001V9.55Z" fill="#DA5398"/>
<path d="M61.9801 7.75C61.8701 8.33 61.8101 8.93 61.8101 9.55V14.25H67.8201C66.8501 11.36 64.7201 9.01 61.9801 7.75Z" fill="#EBA520"/>
<path d="M36.79 44.91V49.95H35.9V44.91H32.52V44.13H40.16V44.91H36.79Z" fill="#0E0000"/>
<path d="M43.86 49.95V47.08H42.0099V49.95H41.2V44.14H42.0099V46.34H43.86V44.14H44.68V49.95H43.86Z" fill="#0E0000"/>
<path d="M46.2 49.95V44.14H49.13V44.88H47.0099V46.38H49.13V47.09H47.0099V49.21H49.13V49.95H46.2Z" fill="#0E0000"/>
<path d="M58.1199 49.95H53.2V44.14H58.1199C59.0299 44.14 59.97 44.49 59.97 45.49C59.97 46.02 59.6099 46.43 59.0999 46.58C59.8499 46.7 60.47 47.2 60.47 48.03C60.46 49.35 59.3299 49.95 58.1199 49.95ZM58.0099 44.9H54.09V46.32H58.0299C58.5799 46.32 59.06 46.07 59.06 45.59C59.06 45.07 58.5499 44.9 58.0099 44.9ZM57.9599 47.08H54.09V49.18H58.0499C58.8899 49.18 59.54 48.83 59.54 48.08C59.54 47.47 59.0799 47.08 57.9599 47.08Z" fill="#0E0000"/>
<path d="M64.3 49.95L62.98 47.48H62.53V49.95H61.72V44.14H63.33C64.36 44.14 65.09 44.74 65.09 45.77C65.09 46.61 64.5 47.18 63.78 47.33L65.24 49.95H64.3ZM63.22 44.87H62.53V46.78H62.97C63.7 46.78 64.26 46.5 64.26 45.76C64.26 45.19 63.82 44.87 63.22 44.87Z" fill="#0E0000"/>
<path d="M66.3301 49.95V44.14H67.1401V49.95H66.3301Z" fill="#0E0000"/>
<path d="M70.0999 49.95H68.6599V44.14H70.0999C71.6799 44.14 72.3799 45.42 72.3799 46.98C72.3699 48.64 71.5399 49.95 70.0999 49.95ZM70.0999 44.87H69.4699V49.22H70.0999C71.0899 49.22 71.5399 48.19 71.5399 46.99C71.5399 45.75 71.0099 44.87 70.0999 44.87Z" fill="#0E0000"/>
<path d="M75.4901 50C73.8801 50 73.3401 48.43 73.3401 46.97C73.3401 45.54 73.8401 44.08 75.8801 44.08C76.0501 44.08 76.2701 44.08 76.4501 44.11L76.4201 44.87C76.2501 44.86 76.0901 44.85 75.9601 44.85C74.4901 44.85 74.1901 45.87 74.1901 47.03C74.1901 47.94 74.4101 49.25 75.4101 49.25C75.5701 49.25 75.7001 49.22 75.8101 49.18V47.04H76.6301V49.76C76.3001 49.9 75.9101 50 75.4901 50Z" fill="#0E0000"/>
<path d="M77.97 49.95V44.14H80.9V44.88H78.78V46.38H80.9V47.09H78.78V49.21H80.9V49.95H77.97Z" fill="#0E0000"/>
<path d="M83.8999 50V46.03H84.6299V46.29H84.1799V49.74H84.6299V50H83.8999Z" fill="#717171"/>
<path d="M87.0598 49.61C86.0198 49.61 85.0298 49.15 85.0298 48.02C85.0298 46.89 86.0098 46.42 87.0598 46.42C88.0998 46.42 89.0798 46.89 89.0798 48.02C89.0798 49.15 88.1098 49.61 87.0598 49.61ZM87.0598 46.8C86.1898 46.8 85.5198 47.2 85.5198 48.01C85.5198 48.82 86.1798 49.22 87.0598 49.22C87.9298 49.22 88.5898 48.82 88.5898 48.01C88.5898 47.21 87.9298 46.8 87.0598 46.8Z" fill="#717171"/>
<path d="M90.71 49.58H90.27L89.48 46.5H89.92L90.49 48.75L91.06 46.5H91.49L90.71 49.58Z" fill="#717171"/>
<path d="M92.1399 49.53V46.5H93.6699V46.89H92.5599V47.67H93.6699V48.04H92.5599V49.15H93.6699V49.54H92.1399V49.53Z" fill="#717171"/>
<path d="M95.7499 49.53L95.0599 48.25H94.8299V49.53H94.3999V46.5H95.2399C95.7799 46.5 96.1599 46.81 96.1599 47.35C96.1599 47.79 95.8499 48.09 95.4799 48.16L96.2399 49.53H95.7499ZM95.1899 46.88H94.8299V47.88H95.0599C95.4399 47.88 95.7299 47.74 95.7299 47.35C95.7299 47.05 95.4999 46.88 95.1899 46.88Z" fill="#717171"/>
<path d="M100.2 46.9V49.52H99.74V46.9H97.98V46.5H101.96V46.9H100.2Z" fill="#717171"/>
<path d="M103.97 49.53V48.03H103V49.53H102.58V46.5H103V47.65H103.96V46.5H104.39V49.53H103.97Z" fill="#717171"/>
<path d="M105.26 49.53V46.5H106.79V46.89H105.68V47.67H106.79V48.04H105.68V49.15H106.79V49.54H105.26V49.53Z" fill="#717171"/>
<path d="M111.47 49.53H108.91V46.5H111.47C111.94 46.5 112.43 46.68 112.43 47.21C112.43 47.48 112.24 47.7 111.98 47.78C112.37 47.84 112.69 48.1 112.69 48.53C112.7 49.22 112.11 49.53 111.47 49.53ZM111.42 46.9H109.38V47.64H111.43C111.72 47.64 111.96 47.51 111.96 47.26C111.96 46.99 111.7 46.9 111.42 46.9ZM111.39 48.04H109.37V49.13H111.43C111.87 49.13 112.21 48.95 112.21 48.55C112.22 48.24 111.98 48.04 111.39 48.04Z" fill="#717171"/>
<path d="M114.24 49.61C113.48 49.61 113.28 48.7 113.28 48.02C113.28 47.34 113.49 46.42 114.24 46.42C115 46.42 115.2 47.32 115.2 48.02C115.2 48.68 114.99 49.61 114.24 49.61ZM114.24 46.81C113.79 46.81 113.71 47.51 113.71 48.02C113.71 48.54 113.79 49.23 114.24 49.23C114.7 49.23 114.77 48.53 114.77 48.02C114.77 47.46 114.69 46.81 114.24 46.81Z" fill="#717171"/>
<path d="M117.27 49.53L116.58 48.25H116.35V49.53H115.93V46.5H116.77C117.31 46.5 117.69 46.81 117.69 47.35C117.69 47.79 117.38 48.09 117.01 48.16L117.77 49.53H117.27ZM116.71 46.88H116.35V47.88H116.58C116.96 47.88 117.25 47.74 117.25 47.35C117.25 47.05 117.02 46.88 116.71 46.88Z" fill="#717171"/>
<path d="M119.16 49.53H118.41V46.5H119.16C119.98 46.5 120.35 47.17 120.35 47.98C120.35 48.85 119.91 49.53 119.16 49.53ZM119.16 46.88H118.83V49.14H119.16C119.68 49.14 119.91 48.6 119.91 47.98C119.91 47.34 119.64 46.88 119.16 46.88Z" fill="#717171"/>
<path d="M121.06 49.53V46.5H122.59V46.89H121.48V47.67H122.59V48.04H121.48V49.15H122.59V49.54H121.06V49.53Z" fill="#717171"/>
<path d="M124.67 49.53L123.98 48.25H123.75V49.53H123.33V46.5H124.17C124.71 46.5 125.09 46.81 125.09 47.35C125.09 47.79 124.78 48.09 124.41 48.16L125.17 49.53H124.67ZM124.11 46.88H123.75V47.88H123.98C124.36 47.88 124.65 47.74 124.65 47.35C124.65 47.05 124.42 46.88 124.11 46.88Z" fill="#717171"/>
<path d="M125.47 50V49.74H125.92V46.29H125.47V46.03H126.19V50H125.47Z" fill="#717171"/>
</g>
<defs>
<clipPath id="clip0_734_368">
<rect width="126.2" height="50" fill="white"/>
</clipPath>
</defs>
</svg>
